HIERARCHY
ROOT Hips
{
	OFFSET -0.001795 -0.223333 0.028219
	CHANNELS 6 Xposition Yposition Zposition Zrotation Yrotation Xrotation 
	JOINT LeftUpLeg
	{
		OFFSET 0.069520 -0.091406 -0.006815
		CHANNELS 3 Zrotation Yrotation Xrotation
		JOINT LeftLeg
		{
			OFFSET 0.034277 -0.375199 -0.004496
			CHANNELS 3 Zrotation Yrotation Xrotation
			JOINT LeftFoot
			{
				OFFSET -0.013596 -0.397961 -0.043693
				CHANNELS 3 Zrotation Yrotation Xrotation
				JOINT LeftToe
				{
					OFFSET 0.026358 -0.055791 0.119288
					CHANNELS 3 Zrotation Yrotation Xrotation
					End Site
					{
						OFFSET 0.000000 0.000000 0.000000
					}
				}
			}
		}
	}
	JOINT RightUpLeg
	{
		OFFSET -0.067670 -0.090522 -0.004320
		CHANNELS 3 Zrotation Yrotation Xrotation
		JOINT RightLeg
		{
			OFFSET -0.038290 -0.382569 -0.008850
			CHANNELS 3 Zrotation Yrotation Xrotation
			JOINT RightFoot
			{
				OFFSET 0.015774 -0.398415 -0.042312
				CHANNELS 3 Zrotation Yrotation Xrotation
				JOINT RightToe
				{
					OFFSET -0.025372 -0.048144 0.123348
					CHANNELS 3 Zrotation Yrotation Xrotation
					End Site
					{
						OFFSET 0.000000 0.000000 0.000000
					}
				}
			}
		}
	}
	JOINT Spine
	{
		OFFSET -0.002533 0.108963 -0.026696
		CHANNELS 3 Zrotation Yrotation Xrotation
		JOINT Spine1
		{
			OFFSET 0.005487 0.135180 0.001092
			CHANNELS 3 Zrotation Yrotation Xrotation
			JOINT Spine2
			{
				OFFSET 0.001457 0.052922 0.025425
				CHANNELS 3 Zrotation Yrotation Xrotation
				JOINT Neck
				{
					OFFSET -0.002778 0.213870 -0.042857
					CHANNELS 3 Zrotation Yrotation Xrotation
					JOINT Head
					{
						OFFSET 0.005152 0.064970 0.051349
						CHANNELS 3 Zrotation Yrotation Xrotation
						End Site
						{
							OFFSET 0.000000 0.000000 0.000000
						}
					}
				}
				JOINT LeftShoulder
				{
					OFFSET 0.078845 0.121749 -0.034090
					CHANNELS 3 Zrotation Yrotation Xrotation
					JOINT LeftArm
					{
						OFFSET 0.090977 0.030469 -0.008868
						CHANNELS 3 Zrotation Yrotation Xrotation
						JOINT LeftForeArm
						{
							OFFSET 0.259612 -0.012772 -0.027456
							CHANNELS 3 Zrotation Yrotation Xrotation
							JOINT LeftHand
							{
								OFFSET 0.249234 0.008986 -0.001171
								CHANNELS 3 Zrotation Yrotation Xrotation
								End Site
								{
									OFFSET 0.000000 0.000000 0.000000
								}
							}
						}
					}
				}
				JOINT RightShoulder
				{
					OFFSET -0.081759 0.118833 -0.038615
					CHANNELS 3 Zrotation Yrotation Xrotation
					JOINT RightArm
					{
						OFFSET -0.096012 0.032551 -0.009143
						CHANNELS 3 Zrotation Yrotation Xrotation
						JOINT RightForeArm
						{
							OFFSET -0.253742 -0.013329 -0.021401
							CHANNELS 3 Zrotation Yrotation Xrotation
							JOINT RightHand
							{
								OFFSET -0.255298 0.007772 -0.005559
								CHANNELS 3 Zrotation Yrotation Xrotation
								End Site
								{
									OFFSET 0.000000 0.000000 0.000000
								}
							}
						}
					}
				}
			}
		}
	}
}
MOTION
Frames: 13
Frame Time: 0.050000
0.000000 0.796997 0.000000 -2.420455 3.579975 5.341615 6.397207 -0.966292 -19.132489 -3.957119 -0.484178 52.180577 9.834448 18.045733 -30.691808 0.000000 0.000000 0.000000 -8.605214 0.649523 -52.172704 4.129999 -0.725771 34.120590 -1.966482 -6.733417 5.528382 0.000000 0.000000 0.000000 4.903499 -4.627573 42.973617 0.297979 -0.255210 2.686943 -4.961279 0.577516 7.721244 11.123357 -5.031162 -18.161383 0.000000 0.000000 0.000000 -16.628955 -30.638034 14.203086 -46.707621 -35.572115 8.259875 44.706602 -37.946815 -14.166162 0.000000 0.000000 0.000000 15.404314 19.556635 9.505376 52.788780 20.337270 3.387834 -21.889732 60.172800 -8.985232 0.000000 0.000000 0.000000 
-0.015489 0.788131 0.013428 -2.433682 3.115139 6.016462 7.965212 -0.786316 -20.308166 -4.923207 0.252606 55.582212 9.808906 18.550221 -29.787180 0.000000 0.000000 0.000000 -6.945361 1.598635 -55.609148 3.683413 -0.501825 38.284059 -1.068321 -4.701653 5.194915 0.000000 0.000000 0.000000 4.707173 -4.582335 43.889919 0.197610 -0.323694 5.765594 -5.129741 2.011872 4.314622 9.123768 -3.050479 -20.985408 0.000000 0.000000 0.000000 -16.060975 -30.858080 13.761698 -46.748967 -37.713513 9.527674 43.931530 -37.538600 -14.080345 0.000000 0.000000 0.000000 16.741415 18.220519 9.309437 49.330772 19.326981 2.787189 -20.527287 63.356682 -8.609250 0.000000 0.000000 0.000000 
-0.030647 0.785944 0.027542 -1.772307 3.461315 5.646032 8.317434 -0.729830 -19.658245 -3.763388 -0.665318 56.142040 9.445879 16.541389 -29.843396 0.000000 0.000000 0.000000 -6.102222 1.908632 -55.861062 3.452627 -0.475632 43.380130 -2.916910 -7.453822 0.344275 0.000000 0.000000 0.000000 5.547615 -5.171451 45.125463 0.776241 -0.536995 3.691278 -6.181739 2.283697 7.028020 9.148250 -2.604967 -23.904660 0.000000 0.000000 0.000000 -16.570940 -30.673548 13.660998 -47.119579 -38.431852 9.712998 45.505247 -37.049946 -14.434252 0.000000 0.000000 0.000000 17.124937 19.605233 10.319812 44.249132 21.016483 2.601396 -22.366670 60.400759 -9.074552 0.000000 0.000000 0.000000 
-0.045239 0.785030 0.042539 -1.535294 3.880188 5.524435 7.850424 -0.801499 -19.387541 -1.845931 -2.208587 57.837442 9.201412 16.131736 -25.750725 0.000000 0.000000 0.000000 -5.701476 2.026977 -57.701816 3.546517 -0.600901 46.353610 -2.503916 -6.852007 1.716536 0.000000 0.000000 0.000000 6.827154 -5.970180 45.995254 0.273572 -0.335982 4.918524 -6.208250 1.397129 7.053765 7.231997 -1.506339 -25.172937 0.000000 0.000000 0.000000 -16.617064 -30.471179 13.794471 -48.534452 -40.667003 11.111227 50.859507 -35.142794 -15.397363 0.000000 0.000000 0.000000 11.771604 20.157802 9.436606 46.667962 23.215405 3.950108 -29.344446 61.020924 -13.354487 0.000000 0.000000 0.000000 
-0.059399 0.783025 0.059544 -0.981177 4.182043 5.284072 7.527877 -0.818791 -18.457343 -0.753180 -3.107407 58.031604 9.199352 16.088930 -25.199321 0.000000 0.000000 0.000000 -4.573024 2.520885 -57.795416 2.413398 -0.006952 49.251692 -3.123019 -7.454753 -1.266967 0.000000 0.000000 0.000000 7.046727 -6.399267 47.728748 0.318606 -0.349484 4.611992 -6.093777 1.851556 7.086211 7.311282 -1.549308 -24.773518 0.000000 0.000000 0.000000 -18.175609 -31.640832 14.638620 -49.541123 -40.586632 11.438295 54.988617 -36.342399 -17.644507 0.000000 0.000000 0.000000 10.949372 20.322303 9.458876 44.798931 23.669296 3.866451 -31.400958 60.703855 -14.383197 0.000000 0.000000 0.000000 
-0.072679 0.779247 0.078071 -0.581097 4.900426 5.278400 7.375620 -0.801021 -16.847656 0.878917 -4.539388 58.309086 8.853696 13.965209 -26.593700 0.000000 0.000000 0.000000 -3.871158 2.663855 -57.796113 1.917277 0.167932 51.291715 -3.563394 -7.616799 -4.473399 0.000000 0.000000 0.000000 7.621659 -6.954722 48.388498 0.106001 -0.239375 4.426519 -5.684222 2.054480 7.278961 6.622587 -1.152382 -24.852147 0.000000 0.000000 0.000000 -20.277680 -31.400837 14.860715 -51.321671 -40.855076 12.167364 56.625429 -36.400516 -18.351304 0.000000 0.000000 0.000000 9.392076 20.286104 9.211255 44.942774 23.694696 3.934067 -33.464612 60.158759 -15.334861 0.000000 0.000000 0.000000 
-0.085567 0.777376 0.097401 0.219876 5.883592 5.654516 6.844913 -0.887126 -16.648328 1.799551 -5.571439 58.568955 8.834783 13.685584 -26.101490 0.000000 0.000000 0.000000 -3.899039 2.336353 -57.848935 1.986990 -0.084970 54.164269 -4.214160 -8.485300 -7.685193 0.000000 0.000000 0.000000 8.425383 -7.671347 48.800641 -0.254475 -0.020043 3.331665 -5.489757 1.627769 7.601894 6.345375 -1.037540 -24.866154 0.000000 0.000000 0.000000 -22.645144 -30.184504 14.710832 -54.231966 -40.173721 12.755153 59.822774 -38.070308 -20.477732 0.000000 0.000000 0.000000 9.185145 19.759467 8.906361 44.207892 23.326398 3.670265 -34.077112 60.013402 -15.672763 0.000000 0.000000 0.000000 
-0.098447 0.775384 0.116452 0.723763 6.499516 5.801756 7.352009 -0.814109 -15.622414 1.877807 -5.822194 58.522561 8.581446 12.535903 -25.698365 0.000000 0.000000 0.000000 -3.498067 2.351906 -57.702297 1.654552 -0.025538 57.401906 -4.511432 -8.383658 -10.888974 0.000000 0.000000 0.000000 8.620014 -8.021617 49.306706 -0.239685 -0.006111 2.693656 -5.380505 2.246593 7.951011 6.512285 -0.785906 -26.765968 0.000000 0.000000 0.000000 -23.931346 -29.151119 14.033321 -56.954444 -40.128295 13.625052 60.894591 -39.096903 -21.697340 0.000000 0.000000 0.000000 9.760907 18.663211 8.620086 43.758475 22.770326 3.359609 -35.118012 60.202476 -16.144541 0.000000 0.000000 0.000000 
-0.112060 0.774279 0.134690 1.309687 8.035805 6.338132 7.856006 -0.824396 -15.554579 1.995157 -6.330456 57.951101 8.611959 12.196136 -25.464978 0.000000 0.000000 0.000000 -3.375810 1.925088 -57.542975 1.634010 -0.410410 59.425350 -4.815285 -8.713554 -13.105616 0.000000 0.000000 0.000000 9.264777 -8.704431 49.081914 0.028125 -0.087665 1.328753 -5.481516 1.999855 9.294838 6.222288 -0.321425 -29.354076 0.000000 0.000000 0.000000 -25.130414 -28.625616 13.920483 -58.537387 -40.686168 14.367885 63.190596 -37.781422 -21.776401 0.000000 0.000000 0.000000 8.848712 17.575140 8.012857 45.478159 22.872299 3.570435 -36.292615 60.406048 -16.711073 0.000000 0.000000 0.000000 
-0.126682 0.773580 0.151773 2.087186 9.257003 6.381076 8.367330 -0.790726 -14.728493 1.895275 -6.558002 57.323264 8.634775 12.179889 -24.586985 0.000000 0.000000 0.000000 -2.793684 1.845094 -57.429978 1.218563 -0.465115 62.064729 -4.741341 -7.972641 -14.439006 0.000000 0.000000 0.000000 9.201649 -9.116731 49.731161 0.011269 -0.027230 0.139282 -5.348954 1.948545 9.924375 6.511491 -0.171913 -31.539288 0.000000 0.000000 0.000000 -25.087848 -27.870051 13.338004 -60.181930 -41.045207 15.070152 64.235062 -36.487214 -21.427965 0.000000 0.000000 0.000000 9.337357 16.403514 7.589389 46.076370 22.642783 3.504213 -36.672344 61.612800 -17.219407 0.000000 0.000000 0.000000 
-0.141828 0.772476 0.167215 2.695037 10.506155 6.714295 9.339162 -0.786292 -15.141198 1.835526 -6.851418 57.079490 8.245188 10.937984 -23.076680 0.000000 0.000000 0.000000 -2.346276 1.681309 -57.487207 0.736268 -0.466377 63.819057 -4.952360 -8.222802 -15.961123 0.000000 0.000000 0.000000 8.817022 -9.319539 50.068209 -0.169237 0.072721 -0.240890 -5.205802 1.553516 10.288003 6.333675 0.060902 -33.000223 0.000000 0.000000 0.000000 -24.135550 -27.163718 12.781380 -60.482532 -42.095767 15.718592 64.240972 -34.096253 -19.856334 0.000000 0.000000 0.000000 10.078226 15.935094 7.490767 46.677383 22.457986 3.446838 -38.457248 62.320204 -18.485543 0.000000 0.000000 0.000000 
-0.156472 0.771800 0.180596 3.526457 11.095813 7.640302 10.222676 -0.775313 -15.280202 1.666276 -6.663988 55.851116 8.249570 11.369842 -21.670762 0.000000 0.000000 0.000000 -1.521159 1.903143 -58.079032 0.002176 -0.047965 65.563367 -4.876838 -7.652973 -16.599197 0.000000 0.000000 0.000000 8.425966 -9.286281 50.046547 0.167512 -0.016729 -1.582221 -5.750879 1.788513 11.024931 6.999592 0.045150 -34.792682 0.000000 0.000000 0.000000 -23.039447 -27.071923 12.412029 -58.803735 -42.374847 15.191518 63.539619 -31.813754 -18.239820 0.000000 0.000000 0.000000 11.571697 15.593115 7.715629 47.207622 22.318842 3.319066 -40.737649 62.271493 -19.568137 0.000000 0.000000 0.000000 
-0.169853 0.770610 0.191887 4.187744 11.629293 8.365351 10.922725 -0.791526 -16.098269 0.705678 -6.211175 56.225067 8.143952 12.034556 -19.145072 0.000000 0.000000 0.000000 -0.859114 2.059833 -58.899468 -0.363191 0.127898 67.216849 -4.918343 -7.544602 -17.160561 0.000000 0.000000 0.000000 8.266907 -9.305788 49.807563 0.272218 -0.047105 -1.903197 -6.233503 1.497861 11.354862 7.249293 0.133785 -36.469454 0.000000 0.000000 0.000000 -20.752071 -26.630309 11.863322 -59.120702 -42.758037 15.375839 63.868368 -29.783537 -17.062217 0.000000 0.000000 0.000000 11.977275 15.065234 7.551811 49.341489 23.044095 3.869927 -41.738311 62.594579 -20.138401 0.000000 0.000000 0.000000 
